<?xml version="1.0" standalone="no"?>
<!DOCTYPE svg PUBLIC "-//W3C//DTD SVG 20010904//EN"
 "http://www.w3.org/TR/2001/REC-SVG-20010904/DTD/svg10.dtd">
<svg version="1.0" xmlns="http://www.w3.org/2000/svg"
 width="911.000000pt" height="274.000000pt" viewBox="0 0 911.000000 274.000000"
 preserveAspectRatio="xMidYMid meet">

<g transform="translate(0.000000,274.000000) scale(0.100000,-0.100000)"
fill="#000000" stroke="none">
<path d="M582 1683 l3 -658 28 -95 c81 -271 242 -422 497 -466 117 -20 270
-14 383 15 100 26 264 105 346 167 78 58 151 130 151 146 0 16 -77 158 -95
177 -12 12 -21 7 -64 -31 -57 -51 -181 -119 -274 -150 -122 -41 -267 -22 -367
47 -80 56 -141 180 -160 326 -6 49 -10 311 -10 631 l0 548 -220 0 -221 0 3
-657z"/>
<path d="M2250 1805 c0 -294 -4 -535 -8 -535 -4 0 -37 39 -72 87 -238 322
-583 650 -935 890 l-90 61 -3 -151 -3 -152 68 -60 c448 -393 798 -869 1008
-1372 l39 -93 223 0 223 0 0 785 0 785 235 0 235 0 0 145 0 145 -460 0 -460 0
0 -535z"/>
<path d="M4748 1874 c-154 -37 -260 -146 -303 -311 -18 -67 -20 -210 -4 -285
28 -136 130 -263 248 -310 80 -32 250 -32 331 0 70 28 160 107 199 175 55 97
76 263 51 398 -47 247 -276 393 -522 333z m211 -174 c90 -45 136 -147 135
-295 -2 -178 -78 -286 -213 -302 -107 -12 -209 57 -246 166 -13 41 -16 77 -13
164 3 97 8 119 30 162 47 91 101 124 201 125 48 0 79 -6 106 -20z"/>
<path d="M6926 1873 c-3 -3 43 -143 101 -311 57 -169 125 -368 150 -442 25
-74 50 -143 55 -152 8 -16 24 -18 127 -18 l119 0 12 33 c6 17 47 136 90 262
43 127 108 315 144 419 36 104 66 195 66 202 0 11 -22 14 -100 14 l-99 0 -55
-172 c-30 -95 -81 -255 -113 -356 -31 -100 -61 -181 -66 -179 -5 1 -53 142
-107 312 -54 171 -104 328 -112 350 l-13 40 -97 1 c-54 1 -100 -1 -102 -3z"/>
<path d="M7890 1800 l0 -80 140 0 140 0 0 -385 0 -385 95 0 95 0 0 385 0 385
140 0 140 0 0 80 0 80 -375 0 -375 0 0 -80z"/>
<path d="M3280 1410 l0 -460 89 0 c78 0 90 2 95 18 4 10 5 143 4 295 -1 152 0
279 3 282 5 5 46 -93 213 -508 l31 -77 64 2 65 3 117 293 c64 162 119 296 122
298 12 13 15 -44 13 -314 l-1 -292 91 0 92 0 -2 460 -1 460 -116 0 -117 0 -52
-127 c-169 -414 -204 -493 -212 -491 -6 2 -29 51 -53 108 -23 58 -68 168 -100
245 -31 77 -65 158 -75 180 -10 22 -21 50 -24 63 -7 21 -12 22 -127 22 l-119
0 0 -460z"/>
<path d="M6040 1531 c0 -315 1 -343 20 -385 10 -25 29 -59 42 -76 31 -42 112
-94 174 -113 66 -19 211 -20 278 0 103 30 189 107 226 203 11 26 15 119 18
373 l3 337 -95 0 -95 0 -3 -323 -3 -324 -27 -40 c-65 -98 -223 -110 -302 -22
-19 20 -39 55 -45 76 -7 23 -11 157 -11 336 l0 297 -90 0 -90 0 0 -339z"/>
</g>
</svg>
