<svg width="93" height="28" viewBox="0 0 93 28" fill="none" xmlns="http://www.w3.org/2000/svg">
<mask id="mask0_241_2725" style="mask-type:luminance" maskUnits="userSpaceOnUse" x="0" y="0" width="93" height="28">
<path d="M92.9354 0H0V27.9949H92.9354V0Z" fill="white"/>
</mask>
<g mask="url(#mask0_241_2725)">
<path d="M15.8785 8.04189L15.8462 7.99052V8.02777C14.7818 7.63602 13.2357 7.20703 10.4199 7.20703C7.60404 7.20703 6.05792 7.63602 4.99358 8.02777V7.99052L4.97292 8.03676C1.86388 9.19272 0 11.9568 0 15.9448V27.4454H4.99487V17.1779C4.99487 13.5186 7.04217 11.5393 10.4212 11.5393C13.8002 11.5393 15.8475 13.5186 15.8475 17.1779V27.4454H20.8423V15.9448C20.8423 11.9632 18.9836 9.20043 15.8798 8.04318" fill="#3E2666"/>
<path d="M59.5925 7.41229C56.1567 7.41229 53.6405 8.6633 52.345 10.5308V0H47.3501V27.4451H52.345V17.1763C52.345 13.5171 54.3923 11.5378 57.7713 11.5378C61.1503 11.5378 63.1976 13.5171 63.1976 17.1763V27.4451H68.1924V15.9446C68.1924 10.5861 64.8315 7.41229 59.5938 7.41229" fill="#3E2666"/>
<path d="M40.4629 15.4322H28.1043C28.1753 15.0353 28.2502 14.6423 28.3729 14.3007C28.6842 13.4337 29.1221 12.717 29.6827 12.1531C30.2433 11.5893 30.9162 11.1744 31.699 10.9086C32.4843 10.6427 33.3329 10.5091 34.2513 10.5091C34.8494 10.5091 35.4086 10.5631 35.924 10.6709C36.4394 10.7788 36.9147 10.924 37.3474 11.1076C37.7801 11.2913 38.1754 11.5289 38.5319 11.8205C38.8884 12.112 39.2049 12.4409 39.4787 12.8082C39.7525 13.1768 39.9682 13.575 40.1284 14.0053C40.2873 14.4368 40.3996 14.9056 40.4642 15.4117V15.4309L40.4629 15.4322ZM45.5469 18.8731C45.5599 17.6684 45.4513 16.542 45.2227 15.4887C44.9941 14.4381 44.6544 13.4722 44.2088 12.5911C43.7631 11.7113 43.2181 10.9253 42.5748 10.2342C41.9316 9.54452 41.194 8.96525 40.357 8.49516C39.5226 8.02635 38.5965 7.66544 37.5774 7.41241C36.5569 7.15938 35.4681 7.03223 34.3094 7.03223C33.2503 7.03223 32.2389 7.14012 31.2714 7.35461C30.3014 7.57039 29.3934 7.88764 28.546 8.30507C27.6987 8.7225 26.9379 9.23369 26.2624 9.8348C25.5855 10.4372 25.0107 11.1269 24.5328 11.9065C24.0536 12.6849 23.6881 13.5352 23.4336 14.4535C23.1791 15.3719 23.0513 16.3698 23.0513 17.4475V17.486C23.0513 18.5109 23.1675 19.4909 23.4039 20.4221C23.639 21.3533 23.9839 22.2049 24.4372 22.9781C24.8893 23.75 25.4447 24.4475 26.1099 25.0678C26.7713 25.6895 27.5217 26.2174 28.3549 26.6541C29.1893 27.092 30.1206 27.4247 31.1449 27.652C32.1691 27.8807 33.2567 27.9937 34.4037 27.9937C35.8801 27.9937 37.2157 27.8421 38.4079 27.5377C39.5988 27.2333 40.6528 26.8005 41.5699 26.2353C42.4883 25.6715 43.2542 24.9959 43.8742 24.2111C44.4916 23.4251 44.9605 22.5645 45.2796 21.6269H40.3867C40.1581 22.0829 39.861 22.481 39.4981 22.824C39.1351 23.1656 38.7089 23.4533 38.218 23.6884C37.7259 23.9234 37.1756 24.1007 36.5647 24.2214C35.9511 24.3421 35.2834 24.4012 34.5574 24.4012C33.8948 24.4012 33.2696 24.3319 32.6832 24.1931C32.0968 24.0531 31.5517 23.8476 31.0493 23.5741C30.5468 23.3018 30.1012 22.9691 29.7124 22.5761C29.3223 22.1831 28.9955 21.7245 28.7281 21.1979C28.4608 20.6726 28.2593 20.1023 28.1249 19.4871C28.0849 19.3034 28.0978 19.0812 28.0707 18.8886H45.5469V18.8693V18.8731Z" fill="#3E2666"/>
<path d="M84.2011 23.8423C85.0032 23.5315 85.6787 23.0768 86.2277 22.4744C86.7753 21.8733 87.1913 21.1566 87.478 20.3269C87.7661 19.4959 87.9094 18.5634 87.9094 17.5231V17.4665C87.9094 16.4275 87.7673 15.4924 87.478 14.6627C87.1913 13.8317 86.7753 13.1265 86.2277 12.5434C85.6787 11.9603 85.0032 11.5108 84.2011 11.1935C83.3963 10.8776 82.4857 10.7183 81.4679 10.7183C80.45 10.7183 79.5562 10.8763 78.7528 11.1935C77.9481 11.5095 77.2738 11.9603 76.7262 12.5434C76.1785 13.1265 75.7587 13.833 75.4655 14.6627C75.171 15.4924 75.0238 16.4275 75.0238 17.4665V17.5231C75.0238 18.5621 75.1697 19.4959 75.4655 20.3269C75.7587 21.1566 76.1785 21.872 76.7262 22.4744C77.2738 23.0768 77.9481 23.5328 78.7528 23.8423C79.5549 24.1531 80.4591 24.3086 81.4679 24.3086C82.4767 24.3086 83.3963 24.1531 84.2011 23.8423ZM76.7081 27.2254C75.295 26.7117 74.0873 25.9963 73.085 25.0766C72.0852 24.1583 71.3231 23.0563 70.8013 21.7706C70.2795 20.4849 70.0186 19.0682 70.0186 17.5231V17.4845C70.0186 15.9265 70.2795 14.5098 70.8013 13.237C71.3231 11.9629 72.0852 10.8609 73.085 9.92966C74.0873 8.99975 75.295 8.28306 76.7081 7.78214C78.1238 7.28122 79.7086 7.03076 81.4679 7.03076C83.2271 7.03076 84.8146 7.28122 86.2367 7.78214C87.6563 8.28306 88.864 8.99847 89.8586 9.92966C90.8518 10.8609 91.6139 11.9642 92.1422 13.237C92.6705 14.5098 92.9353 15.9265 92.9353 17.4845V17.5231C92.9353 19.0682 92.6705 20.4849 92.1422 21.7706C91.6139 23.0563 90.8518 24.1596 89.8586 25.0766C88.8627 25.995 87.6563 26.7104 86.2367 27.2254C84.8146 27.7379 83.2258 27.9948 81.4679 27.9948C79.7099 27.9948 78.1238 27.7392 76.7081 27.2254Z" fill="#3E2666"/>
</g>
</svg>
