<svg width="102" height="29" viewBox="0 0 102 29" fill="none" xmlns="http://www.w3.org/2000/svg">
<g clip-path="url(#clip0_159_6524)">
<path fill-rule="evenodd" clip-rule="evenodd" d="M58.3854 3.32966C58.3854 5.16565 56.9005 6.65933 55.0364 6.65933C53.1724 6.65933 51.6559 5.19676 51.6559 3.32966C51.6559 1.5248 53.204 0 55.0364 0C56.8689 0 58.3854 1.49368 58.3854 3.32966Z" fill="#03DDB9"/>
<path d="M62.5558 25.1126V28.131H68.2427V25.1126L65.3992 21.5962L62.5558 25.1126Z" fill="#09004B"/>
<path d="M57.7852 9.42896H52.3195V28.1H57.7852V9.42896Z" fill="#09004B"/>
<path fill-rule="evenodd" clip-rule="evenodd" d="M33.8685 27.7264C32.9207 28.3177 31.2463 28.6289 29.9193 28.6289C24.422 28.6289 21.7049 25.3925 21.7049 20.6937V13.9721H18.198V9.42883H21.7049V4.66772H27.1706V9.42883H33.9001V13.941H27.1706V20.5381C27.1706 22.623 28.4344 23.8366 30.4248 23.8366C31.5306 23.8366 32.9523 23.4943 33.8685 22.9342V27.7264Z" fill="#09004B"/>
<path fill-rule="evenodd" clip-rule="evenodd" d="M16.3656 22.4674C16.3656 26.2327 12.6375 28.6599 8.30918 28.6599C4.32836 28.6599 1.57969 27.1974 0 24.4278L4.04401 22.1873C4.86545 23.681 6.12921 24.3345 8.02484 24.3345C9.79409 24.3345 10.8999 23.6499 10.8999 22.5607C10.8999 21.3782 9.28859 21.0671 7.32977 20.6625C4.29676 20.0713 0.473908 19.3244 0.473908 14.9368C0.473908 11.576 3.47532 8.93091 8.15121 8.93091C12.2268 8.93091 14.6911 10.8291 15.8285 12.9763L11.7845 15.2168C11.1526 13.8476 9.79409 13.2252 8.24599 13.2252C6.88746 13.2252 5.90805 13.8787 5.90805 14.8434C5.90805 16.0259 7.55093 16.3993 9.54134 16.8039C12.5428 17.4262 16.3656 18.2042 16.3656 22.4674Z" fill="#09004B"/>
<path fill-rule="evenodd" clip-rule="evenodd" d="M42.62 28.0998V17.5818C42.62 15.3413 43.9154 14.0032 46.0638 14.0032C47.0748 14.0032 48.1805 14.2521 49.0968 14.7812V9.58439C48.149 9.17985 46.7904 8.93091 45.5583 8.93091C39.903 8.93091 37.1543 12.6029 37.1543 17.3951V28.0998H42.62Z" fill="#09004B"/>
<path fill-rule="evenodd" clip-rule="evenodd" d="M75.7305 28.1H82.2072L74.3403 18.7022L82.2388 9.42896H75.7305L70.4859 15.6526C70.3595 15.8082 70.012 16.3372 69.7908 16.9596C69.3801 18.0487 69.3801 19.3868 69.7908 20.476C70.012 21.0983 70.4543 21.7207 70.4859 21.7829" fill="#09004B"/>
<path d="M68.1479 1.30688H62.3662V18.422L68.1479 11.8249V1.30688Z" fill="#09004B"/>
<path fill-rule="evenodd" clip-rule="evenodd" d="M101.764 18.2354C101.764 13.132 98.2568 8.77539 92.2224 8.77539C86.3459 8.77539 82.3651 13.2253 82.3651 18.6088C82.3651 24.5835 86.8198 28.5978 92.7279 28.5978C96.7719 28.5978 99.8997 26.6684 101.574 23.3077L97.3722 21.2227C96.4875 22.9654 94.7499 23.93 92.6963 23.93C89.9792 23.93 88.0204 22.2808 87.6413 19.7913H101.795V18.2354H101.764ZM87.8624 16.835C88.2416 14.9368 89.8212 13.4431 92.1908 13.4431C94.4971 13.4431 96.1084 14.9057 96.3296 16.835C96.3612 16.835 87.8624 16.835 87.8624 16.835Z" fill="#09004B"/>
</g>
<defs>
<clipPath id="clip0_159_6524">
<rect width="101.764" height="28.66" fill="white"/>
</clipPath>
</defs>
</svg>
